<mxfile host="app.diagrams.net" modified="2022-01-12T21:03:37.097Z" agent="5.0 (Windows NT 10.0; Win64; x64) AppleWebKit/537.36 (KHTML, like Gecko) Chrome/93.0.4577.82 Safari/537.36" etag="gnsFUEdHa15996yQ-tV4" version="16.2.4" type="github">
  <diagram id="C5RBs43oDa-KdzZeNtuy" name="Page-1">
    <mxGraphModel dx="1185" dy="635" grid="1" gridSize="10" guides="1" tooltips="1" connect="1" arrows="1" fold="1" page="1" pageScale="1" pageWidth="827" pageHeight="1169" math="0" shadow="0">
      <root>
        <mxCell id="WIyWlLk6GJQsqaUBKTNV-0" />
        <mxCell id="WIyWlLk6GJQsqaUBKTNV-1" parent="WIyWlLk6GJQsqaUBKTNV-0" />
        <mxCell id="yN_V-BnS2XcKPEUp8Myx-26" value="Журнал клуба анонимных людей с сложной жизненной ситуацией" style="rounded=0;whiteSpace=wrap;html=1;labelBackgroundColor=none;labelBorderColor=none;fontFamily=Helvetica;fontSize=14;fontColor=#000000;strokeColor=#000000;align=center;verticalAlign=top;" vertex="1" parent="WIyWlLk6GJQsqaUBKTNV-1">
          <mxGeometry x="160" y="1049" width="560" height="601" as="geometry" />
        </mxCell>
        <mxCell id="ru_HE9yKcvlEWN_6YMoE-74" value="Программа &quot;Витраж&quot; визуального оформления окон" style="rounded=0;whiteSpace=wrap;html=1;labelBackgroundColor=none;labelBorderColor=none;fontFamily=Helvetica;fontSize=14;fontColor=#000000;strokeColor=#000000;align=center;verticalAlign=top;" parent="WIyWlLk6GJQsqaUBKTNV-1" vertex="1">
          <mxGeometry x="160" y="669" width="560" height="340" as="geometry" />
        </mxCell>
        <mxCell id="ru_HE9yKcvlEWN_6YMoE-69" value="Интернет магазин услуг &quot;Ромашка&quot;" style="rounded=0;whiteSpace=wrap;html=1;labelBackgroundColor=none;labelBorderColor=none;fontFamily=Helvetica;fontSize=14;fontColor=#000000;strokeColor=#000000;align=center;verticalAlign=top;" parent="WIyWlLk6GJQsqaUBKTNV-1" vertex="1">
          <mxGeometry x="160" y="60" width="560" height="570" as="geometry" />
        </mxCell>
        <mxCell id="zkfFHV4jXpPFQw0GAbJ--0" value="Анонимы" style="swimlane;fontStyle=0;align=center;verticalAlign=top;childLayout=stackLayout;horizontal=1;startSize=26;horizontalStack=0;resizeParent=1;resizeLast=0;collapsible=1;marginBottom=0;rounded=0;shadow=0;strokeWidth=1;fillColor=#f5f5f5;fontColor=#333333;strokeColor=#666666;" parent="WIyWlLk6GJQsqaUBKTNV-1" vertex="1">
          <mxGeometry x="175" y="1110" width="160" height="164" as="geometry">
            <mxRectangle x="267" y="1140.5" width="160" height="26" as="alternateBounds" />
          </mxGeometry>
        </mxCell>
        <mxCell id="zkfFHV4jXpPFQw0GAbJ--1" value="Имя" style="text;align=left;verticalAlign=top;spacingLeft=4;spacingRight=4;overflow=hidden;rotatable=0;points=[[0,0.5],[1,0.5]];portConstraint=eastwest;fontStyle=0" parent="zkfFHV4jXpPFQw0GAbJ--0" vertex="1">
          <mxGeometry y="26" width="160" height="26" as="geometry" />
        </mxCell>
        <mxCell id="zkfFHV4jXpPFQw0GAbJ--2" value="Номер телефона" style="text;align=left;verticalAlign=top;spacingLeft=4;spacingRight=4;overflow=hidden;rotatable=0;points=[[0,0.5],[1,0.5]];portConstraint=eastwest;rounded=0;shadow=0;html=0;fontStyle=0" parent="zkfFHV4jXpPFQw0GAbJ--0" vertex="1">
          <mxGeometry y="52" width="160" height="26" as="geometry" />
        </mxCell>
        <mxCell id="zkfFHV4jXpPFQw0GAbJ--3" value="Email Адрес" style="text;align=left;verticalAlign=top;spacingLeft=4;spacingRight=4;overflow=hidden;rotatable=0;points=[[0,0.5],[1,0.5]];portConstraint=eastwest;rounded=0;shadow=0;html=0;fontStyle=0" parent="zkfFHV4jXpPFQw0GAbJ--0" vertex="1">
          <mxGeometry y="78" width="160" height="26" as="geometry" />
        </mxCell>
        <mxCell id="zkfFHV4jXpPFQw0GAbJ--4" value="" style="line;html=1;strokeWidth=1;align=left;verticalAlign=middle;spacingTop=-1;spacingLeft=3;spacingRight=3;rotatable=0;labelPosition=right;points=[];portConstraint=eastwest;fontStyle=0;fillColor=#f5f5f5;fontColor=#333333;strokeColor=#666666;" parent="zkfFHV4jXpPFQw0GAbJ--0" vertex="1">
          <mxGeometry y="104" width="160" height="8" as="geometry" />
        </mxCell>
        <mxCell id="zkfFHV4jXpPFQw0GAbJ--5" value="Адрес" style="text;align=left;verticalAlign=top;spacingLeft=4;spacingRight=4;overflow=hidden;rotatable=0;points=[[0,0.5],[1,0.5]];portConstraint=eastwest;fontStyle=0" parent="zkfFHV4jXpPFQw0GAbJ--0" vertex="1">
          <mxGeometry y="112" width="160" height="26" as="geometry" />
        </mxCell>
        <mxCell id="yN_V-BnS2XcKPEUp8Myx-32" value="Симптомы" style="text;align=left;verticalAlign=top;spacingLeft=4;spacingRight=4;overflow=hidden;rotatable=0;points=[[0,0.5],[1,0.5]];portConstraint=eastwest;rounded=0;shadow=0;html=0;fontStyle=0" vertex="1" parent="zkfFHV4jXpPFQw0GAbJ--0">
          <mxGeometry y="138" width="160" height="26" as="geometry" />
        </mxCell>
        <mxCell id="zkfFHV4jXpPFQw0GAbJ--6" value="Игроманы" style="swimlane;fontStyle=0;align=center;verticalAlign=top;childLayout=stackLayout;horizontal=1;startSize=26;horizontalStack=0;resizeParent=1;resizeLast=0;collapsible=1;marginBottom=0;rounded=0;shadow=0;strokeWidth=1;fillColor=#dae8fc;strokeColor=#6c8ebf;" parent="WIyWlLk6GJQsqaUBKTNV-1" vertex="1">
          <mxGeometry x="175" y="1460" width="160" height="160" as="geometry">
            <mxRectangle x="175" y="1380.5" width="160" height="26" as="alternateBounds" />
          </mxGeometry>
        </mxCell>
        <mxCell id="yN_V-BnS2XcKPEUp8Myx-48" value="Имя" style="text;align=left;verticalAlign=top;spacingLeft=4;spacingRight=4;overflow=hidden;rotatable=0;points=[[0,0.5],[1,0.5]];portConstraint=eastwest;fontStyle=2" vertex="1" parent="zkfFHV4jXpPFQw0GAbJ--6">
          <mxGeometry y="26" width="160" height="26" as="geometry" />
        </mxCell>
        <mxCell id="yN_V-BnS2XcKPEUp8Myx-49" value="Номер телефона" style="text;align=left;verticalAlign=top;spacingLeft=4;spacingRight=4;overflow=hidden;rotatable=0;points=[[0,0.5],[1,0.5]];portConstraint=eastwest;rounded=0;shadow=0;html=0;fontStyle=2" vertex="1" parent="zkfFHV4jXpPFQw0GAbJ--6">
          <mxGeometry y="52" width="160" height="26" as="geometry" />
        </mxCell>
        <mxCell id="yN_V-BnS2XcKPEUp8Myx-50" value="Email Адрес" style="text;align=left;verticalAlign=top;spacingLeft=4;spacingRight=4;overflow=hidden;rotatable=0;points=[[0,0.5],[1,0.5]];portConstraint=eastwest;rounded=0;shadow=0;html=0;fontStyle=2" vertex="1" parent="zkfFHV4jXpPFQw0GAbJ--6">
          <mxGeometry y="78" width="160" height="26" as="geometry" />
        </mxCell>
        <mxCell id="zkfFHV4jXpPFQw0GAbJ--7" value="Симптомы" style="text;align=left;verticalAlign=top;spacingLeft=4;spacingRight=4;overflow=hidden;rotatable=0;points=[[0,0.5],[1,0.5]];portConstraint=eastwest;fontStyle=0;fillColor=#dae8fc;strokeColor=#6c8ebf;" parent="zkfFHV4jXpPFQw0GAbJ--6" vertex="1">
          <mxGeometry y="104" width="160" height="26" as="geometry" />
        </mxCell>
        <mxCell id="zkfFHV4jXpPFQw0GAbJ--10" value="Высокая температура" style="text;align=left;verticalAlign=top;spacingLeft=4;spacingRight=4;overflow=hidden;rotatable=0;points=[[0,0.5],[1,0.5]];portConstraint=eastwest;fontStyle=2" parent="zkfFHV4jXpPFQw0GAbJ--6" vertex="1">
          <mxGeometry y="130" width="160" height="26" as="geometry" />
        </mxCell>
        <mxCell id="zkfFHV4jXpPFQw0GAbJ--12" value="" style="endArrow=block;endSize=10;endFill=0;shadow=0;strokeWidth=1;rounded=0;edgeStyle=elbowEdgeStyle;elbow=vertical;fontStyle=0;entryX=0.435;entryY=1.05;entryDx=0;entryDy=0;entryPerimeter=0;fillColor=#dae8fc;strokeColor=#6c8ebf;" parent="WIyWlLk6GJQsqaUBKTNV-1" source="zkfFHV4jXpPFQw0GAbJ--6" target="yN_V-BnS2XcKPEUp8Myx-32" edge="1">
          <mxGeometry width="160" relative="1" as="geometry">
            <mxPoint x="247" y="1223.5" as="sourcePoint" />
            <mxPoint x="247" y="1223.5" as="targetPoint" />
            <Array as="points">
              <mxPoint x="245" y="1340" />
              <mxPoint x="247" y="1329.5" />
            </Array>
          </mxGeometry>
        </mxCell>
        <mxCell id="zkfFHV4jXpPFQw0GAbJ--13" value="Программисты" style="swimlane;fontStyle=0;align=center;verticalAlign=top;childLayout=stackLayout;horizontal=1;startSize=26;horizontalStack=0;resizeParent=1;resizeLast=0;collapsible=1;marginBottom=0;rounded=0;shadow=0;strokeWidth=1;fillColor=#f8cecc;strokeColor=#b85450;" parent="WIyWlLk6GJQsqaUBKTNV-1" vertex="1">
          <mxGeometry x="350" y="1460" width="160" height="160" as="geometry">
            <mxRectangle x="377" y="1380.5" width="170" height="26" as="alternateBounds" />
          </mxGeometry>
        </mxCell>
        <mxCell id="yN_V-BnS2XcKPEUp8Myx-52" value="Имя" style="text;align=left;verticalAlign=top;spacingLeft=4;spacingRight=4;overflow=hidden;rotatable=0;points=[[0,0.5],[1,0.5]];portConstraint=eastwest;fontStyle=2" vertex="1" parent="zkfFHV4jXpPFQw0GAbJ--13">
          <mxGeometry y="26" width="160" height="26" as="geometry" />
        </mxCell>
        <mxCell id="yN_V-BnS2XcKPEUp8Myx-53" value="Номер телефона" style="text;align=left;verticalAlign=top;spacingLeft=4;spacingRight=4;overflow=hidden;rotatable=0;points=[[0,0.5],[1,0.5]];portConstraint=eastwest;rounded=0;shadow=0;html=0;fontStyle=2" vertex="1" parent="zkfFHV4jXpPFQw0GAbJ--13">
          <mxGeometry y="52" width="160" height="26" as="geometry" />
        </mxCell>
        <mxCell id="yN_V-BnS2XcKPEUp8Myx-54" value="Email Адрес" style="text;align=left;verticalAlign=top;spacingLeft=4;spacingRight=4;overflow=hidden;rotatable=0;points=[[0,0.5],[1,0.5]];portConstraint=eastwest;rounded=0;shadow=0;html=0;fontStyle=2" vertex="1" parent="zkfFHV4jXpPFQw0GAbJ--13">
          <mxGeometry y="78" width="160" height="26" as="geometry" />
        </mxCell>
        <mxCell id="zkfFHV4jXpPFQw0GAbJ--14" value="Симптомы" style="text;align=left;verticalAlign=top;spacingLeft=4;spacingRight=4;overflow=hidden;rotatable=0;points=[[0,0.5],[1,0.5]];portConstraint=eastwest;fontStyle=0;fillColor=#f8cecc;strokeColor=#b85450;" parent="zkfFHV4jXpPFQw0GAbJ--13" vertex="1">
          <mxGeometry y="104" width="160" height="26" as="geometry" />
        </mxCell>
        <mxCell id="yN_V-BnS2XcKPEUp8Myx-45" value="Боли в мышцах" style="text;align=left;verticalAlign=top;spacingLeft=4;spacingRight=4;overflow=hidden;rotatable=0;points=[[0,0.5],[1,0.5]];portConstraint=eastwest;fontStyle=2" vertex="1" parent="zkfFHV4jXpPFQw0GAbJ--13">
          <mxGeometry y="130" width="160" height="30" as="geometry" />
        </mxCell>
        <mxCell id="zkfFHV4jXpPFQw0GAbJ--16" value="" style="endArrow=block;endSize=10;endFill=0;shadow=0;strokeWidth=1;rounded=0;edgeStyle=elbowEdgeStyle;elbow=vertical;fontStyle=0;entryX=0.523;entryY=1.035;entryDx=0;entryDy=0;entryPerimeter=0;fillColor=#f8cecc;strokeColor=#b85450;" parent="WIyWlLk6GJQsqaUBKTNV-1" source="zkfFHV4jXpPFQw0GAbJ--13" target="yN_V-BnS2XcKPEUp8Myx-32" edge="1">
          <mxGeometry width="160" relative="1" as="geometry">
            <mxPoint x="257" y="1393.5" as="sourcePoint" />
            <mxPoint x="357" y="1291.5" as="targetPoint" />
            <Array as="points">
              <mxPoint x="340" y="1440" />
            </Array>
          </mxGeometry>
        </mxCell>
        <mxCell id="zkfFHV4jXpPFQw0GAbJ--17" value="Адрес" style="swimlane;fontStyle=0;align=center;verticalAlign=top;childLayout=stackLayout;horizontal=1;startSize=26;horizontalStack=0;resizeParent=1;resizeLast=0;collapsible=1;marginBottom=0;rounded=0;shadow=0;strokeWidth=1;fillColor=#e1d5e7;strokeColor=#9673a6;" parent="WIyWlLk6GJQsqaUBKTNV-1" vertex="1">
          <mxGeometry x="520" y="1110" width="160" height="139.5" as="geometry">
            <mxRectangle x="550" y="140" width="160" height="26" as="alternateBounds" />
          </mxGeometry>
        </mxCell>
        <mxCell id="zkfFHV4jXpPFQw0GAbJ--18" value="Улица" style="text;align=left;verticalAlign=top;spacingLeft=4;spacingRight=4;overflow=hidden;rotatable=0;points=[[0,0.5],[1,0.5]];portConstraint=eastwest;fontStyle=0" parent="zkfFHV4jXpPFQw0GAbJ--17" vertex="1">
          <mxGeometry y="26" width="160" height="26" as="geometry" />
        </mxCell>
        <mxCell id="zkfFHV4jXpPFQw0GAbJ--19" value="Город" style="text;align=left;verticalAlign=top;spacingLeft=4;spacingRight=4;overflow=hidden;rotatable=0;points=[[0,0.5],[1,0.5]];portConstraint=eastwest;rounded=0;shadow=0;html=0;fontStyle=0" parent="zkfFHV4jXpPFQw0GAbJ--17" vertex="1">
          <mxGeometry y="52" width="160" height="26" as="geometry" />
        </mxCell>
        <mxCell id="zkfFHV4jXpPFQw0GAbJ--21" value="Почтовый индекс" style="text;align=left;verticalAlign=top;spacingLeft=4;spacingRight=4;overflow=hidden;rotatable=0;points=[[0,0.5],[1,0.5]];portConstraint=eastwest;rounded=0;shadow=0;html=0;fontStyle=0" parent="zkfFHV4jXpPFQw0GAbJ--17" vertex="1">
          <mxGeometry y="78" width="160" height="26" as="geometry" />
        </mxCell>
        <mxCell id="zkfFHV4jXpPFQw0GAbJ--23" value="" style="line;html=1;strokeWidth=1;align=left;verticalAlign=middle;spacingTop=-1;spacingLeft=3;spacingRight=3;rotatable=0;labelPosition=right;points=[];portConstraint=eastwest;fontStyle=0;fillColor=#e1d5e7;strokeColor=#9673a6;" parent="zkfFHV4jXpPFQw0GAbJ--17" vertex="1">
          <mxGeometry y="104" width="160" height="8" as="geometry" />
        </mxCell>
        <mxCell id="zkfFHV4jXpPFQw0GAbJ--24" value="Распечатать" style="text;align=left;verticalAlign=top;spacingLeft=4;spacingRight=4;overflow=hidden;rotatable=0;points=[[0,0.5],[1,0.5]];portConstraint=eastwest;fontStyle=0" parent="zkfFHV4jXpPFQw0GAbJ--17" vertex="1">
          <mxGeometry y="112" width="160" height="26" as="geometry" />
        </mxCell>
        <mxCell id="zkfFHV4jXpPFQw0GAbJ--26" value="" style="endArrow=open;shadow=0;strokeWidth=1;rounded=0;endFill=1;edgeStyle=elbowEdgeStyle;elbow=vertical;fontStyle=0;fillColor=#e1d5e7;strokeColor=#9673a6;" parent="WIyWlLk6GJQsqaUBKTNV-1" source="zkfFHV4jXpPFQw0GAbJ--0" target="zkfFHV4jXpPFQw0GAbJ--17" edge="1">
          <mxGeometry x="0.5" y="41" relative="1" as="geometry">
            <mxPoint x="427" y="1212.5" as="sourcePoint" />
            <mxPoint x="587" y="1212.5" as="targetPoint" />
            <mxPoint x="-40" y="32" as="offset" />
          </mxGeometry>
        </mxCell>
        <mxCell id="zkfFHV4jXpPFQw0GAbJ--27" value="0..1" style="resizable=0;align=left;verticalAlign=bottom;labelBackgroundColor=none;fontSize=12;fontStyle=0" parent="zkfFHV4jXpPFQw0GAbJ--26" connectable="0" vertex="1">
          <mxGeometry x="-1" relative="1" as="geometry">
            <mxPoint y="4" as="offset" />
          </mxGeometry>
        </mxCell>
        <mxCell id="zkfFHV4jXpPFQw0GAbJ--28" value="1" style="resizable=0;align=right;verticalAlign=bottom;labelBackgroundColor=none;fontSize=12;fontStyle=0" parent="zkfFHV4jXpPFQw0GAbJ--26" connectable="0" vertex="1">
          <mxGeometry x="1" relative="1" as="geometry">
            <mxPoint x="-7" y="4" as="offset" />
          </mxGeometry>
        </mxCell>
        <mxCell id="zkfFHV4jXpPFQw0GAbJ--29" value="Местонахождение" style="text;html=1;resizable=0;points=[];;align=center;verticalAlign=middle;labelBackgroundColor=none;rounded=0;shadow=0;strokeWidth=1;fontSize=12;fontStyle=0" parent="zkfFHV4jXpPFQw0GAbJ--26" vertex="1" connectable="0">
          <mxGeometry x="0.5" y="49" relative="1" as="geometry">
            <mxPoint x="-38" y="60" as="offset" />
          </mxGeometry>
        </mxCell>
        <mxCell id="ru_HE9yKcvlEWN_6YMoE-2" value="&lt;ul style=&quot;box-sizing: border-box; margin: 0px; list-style: none; padding: 0px; color: rgb(44, 45, 48); background-color: rgb(255, 255, 255);&quot;&gt;&lt;li style=&quot;box-sizing: border-box&quot;&gt;&lt;font style=&quot;font-size: 14px&quot;&gt;- Диаграмма вариантов использования (прецедентов);&lt;/font&gt;&lt;/li&gt;&lt;/ul&gt;" style="text;html=1;resizable=0;autosize=1;align=center;verticalAlign=middle;points=[];fillColor=none;strokeColor=none;rounded=0;fontStyle=0;fontFamily=Helvetica;" parent="WIyWlLk6GJQsqaUBKTNV-1" vertex="1">
          <mxGeometry y="40" width="370" height="20" as="geometry" />
        </mxCell>
        <mxCell id="ru_HE9yKcvlEWN_6YMoE-3" value="&lt;ul style=&quot;box-sizing: border-box ; margin: 0px ; list-style: none ; padding: 0px ; line-height: 1&quot;&gt;&lt;li style=&quot;box-sizing: border-box&quot;&gt;&lt;p style=&quot;box-sizing: border-box ; font-weight: 500 ; line-height: 24px ; margin-top: 0px ; margin-bottom: 10px&quot;&gt;&lt;font style=&quot;font-size: 14px&quot;&gt;Практическое задание. необходимо выбрать любой процесс из&amp;nbsp;&lt;/font&gt;&lt;font style=&quot;font-size: 14px&quot;&gt;окружающей жизни. Для выбранного процесса построить:&lt;/font&gt;&lt;/p&gt;&lt;/li&gt;&lt;/ul&gt;" style="text;html=1;resizable=0;autosize=1;align=left;verticalAlign=middle;points=[];fillColor=none;strokeColor=none;rounded=0;labelBackgroundColor=none;labelBorderColor=none;fontColor=default;spacing=2;spacingTop=0;spacingLeft=0;spacingBottom=0;spacingRight=0;fontFamily=Helvetica;" parent="WIyWlLk6GJQsqaUBKTNV-1" vertex="1">
          <mxGeometry width="810" height="40" as="geometry" />
        </mxCell>
        <mxCell id="ru_HE9yKcvlEWN_6YMoE-34" style="edgeStyle=orthogonalEdgeStyle;rounded=0;orthogonalLoop=1;jettySize=auto;html=1;exitX=0.5;exitY=0.5;exitDx=0;exitDy=0;exitPerimeter=0;fontFamily=Helvetica;fontSize=14;fontColor=none;entryX=0.5;entryY=0.5;entryDx=0;entryDy=0;entryPerimeter=0;strokeColor=#7F00FF;" parent="WIyWlLk6GJQsqaUBKTNV-1" source="ru_HE9yKcvlEWN_6YMoE-4" target="ru_HE9yKcvlEWN_6YMoE-12" edge="1">
          <mxGeometry relative="1" as="geometry">
            <mxPoint x="230" y="270" as="targetPoint" />
            <Array as="points">
              <mxPoint x="270" y="150" />
              <mxPoint x="210" y="150" />
              <mxPoint x="210" y="280" />
            </Array>
          </mxGeometry>
        </mxCell>
        <mxCell id="ru_HE9yKcvlEWN_6YMoE-35" style="edgeStyle=orthogonalEdgeStyle;rounded=0;orthogonalLoop=1;jettySize=auto;html=1;exitX=0.5;exitY=0.5;exitDx=0;exitDy=0;exitPerimeter=0;fontFamily=Helvetica;fontSize=14;fontColor=none;entryX=0.5;entryY=0.5;entryDx=0;entryDy=0;entryPerimeter=0;strokeColor=#7F00FF;" parent="WIyWlLk6GJQsqaUBKTNV-1" source="ru_HE9yKcvlEWN_6YMoE-4" target="ru_HE9yKcvlEWN_6YMoE-22" edge="1">
          <mxGeometry relative="1" as="geometry">
            <mxPoint x="380" y="430" as="targetPoint" />
            <Array as="points">
              <mxPoint x="200" y="140" />
              <mxPoint x="200" y="420" />
            </Array>
          </mxGeometry>
        </mxCell>
        <mxCell id="ru_HE9yKcvlEWN_6YMoE-36" style="edgeStyle=orthogonalEdgeStyle;rounded=0;orthogonalLoop=1;jettySize=auto;html=1;exitX=0.5;exitY=0.5;exitDx=0;exitDy=0;exitPerimeter=0;fontFamily=Helvetica;fontSize=14;fontColor=none;entryX=0;entryY=0.3333333333333333;entryDx=0;entryDy=0;entryPerimeter=0;strokeColor=#7F00FF;" parent="WIyWlLk6GJQsqaUBKTNV-1" source="ru_HE9yKcvlEWN_6YMoE-4" target="ru_HE9yKcvlEWN_6YMoE-11" edge="1">
          <mxGeometry relative="1" as="geometry">
            <mxPoint x="250" y="560" as="targetPoint" />
            <Array as="points">
              <mxPoint x="270" y="130" />
              <mxPoint x="190" y="130" />
              <mxPoint x="190" y="550" />
            </Array>
          </mxGeometry>
        </mxCell>
        <mxCell id="ru_HE9yKcvlEWN_6YMoE-40" style="edgeStyle=orthogonalEdgeStyle;rounded=0;orthogonalLoop=1;jettySize=auto;html=1;exitX=0.5;exitY=0.5;exitDx=0;exitDy=0;exitPerimeter=0;entryX=0;entryY=0.5;entryDx=0;entryDy=0;fontFamily=Helvetica;fontSize=14;fontColor=none;strokeColor=#7F00FF;" parent="WIyWlLk6GJQsqaUBKTNV-1" source="ru_HE9yKcvlEWN_6YMoE-4" target="ru_HE9yKcvlEWN_6YMoE-39" edge="1">
          <mxGeometry relative="1" as="geometry" />
        </mxCell>
        <mxCell id="ru_HE9yKcvlEWN_6YMoE-42" style="edgeStyle=orthogonalEdgeStyle;rounded=0;orthogonalLoop=1;jettySize=auto;html=1;exitX=0.5;exitY=0.5;exitDx=0;exitDy=0;exitPerimeter=0;entryX=0;entryY=0;entryDx=0;entryDy=0;fontFamily=Helvetica;fontSize=14;fontColor=none;strokeColor=#7F00FF;" parent="WIyWlLk6GJQsqaUBKTNV-1" source="ru_HE9yKcvlEWN_6YMoE-4" target="ru_HE9yKcvlEWN_6YMoE-41" edge="1">
          <mxGeometry relative="1" as="geometry">
            <Array as="points">
              <mxPoint x="330" y="140" />
              <mxPoint x="330" y="100" />
              <mxPoint x="531" y="100" />
              <mxPoint x="531" y="119" />
            </Array>
          </mxGeometry>
        </mxCell>
        <mxCell id="ru_HE9yKcvlEWN_6YMoE-4" value="Пользователь" style="shape=umlActor;verticalLabelPosition=bottom;verticalAlign=top;html=1;labelBackgroundColor=none;labelBorderColor=none;fontFamily=Helvetica;fontSize=14;fontColor=default;strokeColor=#7F00FF;" parent="WIyWlLk6GJQsqaUBKTNV-1" vertex="1">
          <mxGeometry x="255" y="110" width="30" height="60" as="geometry" />
        </mxCell>
        <mxCell id="ru_HE9yKcvlEWN_6YMoE-46" style="edgeStyle=orthogonalEdgeStyle;rounded=0;orthogonalLoop=1;jettySize=auto;html=1;exitX=0.5;exitY=0.5;exitDx=0;exitDy=0;exitPerimeter=0;fontFamily=Helvetica;fontSize=14;fontColor=none;entryX=0.5;entryY=1;entryDx=0;entryDy=0;strokeColor=#007FFF;" parent="WIyWlLk6GJQsqaUBKTNV-1" source="ru_HE9yKcvlEWN_6YMoE-11" target="ru_HE9yKcvlEWN_6YMoE-39" edge="1">
          <mxGeometry relative="1" as="geometry">
            <mxPoint x="440" y="230" as="targetPoint" />
            <Array as="points">
              <mxPoint x="350" y="560" />
              <mxPoint x="350" y="200" />
              <mxPoint x="430" y="200" />
            </Array>
          </mxGeometry>
        </mxCell>
        <mxCell id="ru_HE9yKcvlEWN_6YMoE-63" style="edgeStyle=orthogonalEdgeStyle;rounded=0;orthogonalLoop=1;jettySize=auto;html=1;exitX=0.5;exitY=0.5;exitDx=0;exitDy=0;exitPerimeter=0;entryX=0;entryY=0.5;entryDx=0;entryDy=0;fontFamily=Helvetica;fontSize=14;fontColor=#000000;strokeColor=#007FFF;" parent="WIyWlLk6GJQsqaUBKTNV-1" source="ru_HE9yKcvlEWN_6YMoE-11" target="ru_HE9yKcvlEWN_6YMoE-50" edge="1">
          <mxGeometry relative="1" as="geometry" />
        </mxCell>
        <mxCell id="ru_HE9yKcvlEWN_6YMoE-11" value="Регистрированный&lt;br&gt;&amp;nbsp;Покупатель" style="shape=umlActor;verticalLabelPosition=bottom;verticalAlign=top;html=1;labelBackgroundColor=none;labelBorderColor=none;fontFamily=Helvetica;fontSize=14;fontColor=default;strokeColor=#007FFF;" parent="WIyWlLk6GJQsqaUBKTNV-1" vertex="1">
          <mxGeometry x="255" y="530" width="30" height="60" as="geometry" />
        </mxCell>
        <mxCell id="ru_HE9yKcvlEWN_6YMoE-56" style="edgeStyle=orthogonalEdgeStyle;rounded=0;orthogonalLoop=1;jettySize=auto;html=1;exitX=0.5;exitY=0.5;exitDx=0;exitDy=0;exitPerimeter=0;entryX=0;entryY=0.5;entryDx=0;entryDy=0;fontFamily=Helvetica;fontSize=14;fontColor=#000000;strokeColor=#FF0000;" parent="WIyWlLk6GJQsqaUBKTNV-1" source="ru_HE9yKcvlEWN_6YMoE-12" target="ru_HE9yKcvlEWN_6YMoE-55" edge="1">
          <mxGeometry relative="1" as="geometry">
            <Array as="points">
              <mxPoint x="350" y="280" />
              <mxPoint x="350" y="280" />
            </Array>
          </mxGeometry>
        </mxCell>
        <mxCell id="ru_HE9yKcvlEWN_6YMoE-12" value="Администратор" style="shape=umlActor;verticalLabelPosition=bottom;verticalAlign=top;html=1;labelBackgroundColor=none;labelBorderColor=none;fontFamily=Helvetica;fontSize=14;fontColor=#000000;strokeColor=#FF0000;" parent="WIyWlLk6GJQsqaUBKTNV-1" vertex="1">
          <mxGeometry x="255" y="250" width="30" height="60" as="geometry" />
        </mxCell>
        <mxCell id="ru_HE9yKcvlEWN_6YMoE-45" style="edgeStyle=orthogonalEdgeStyle;rounded=0;orthogonalLoop=1;jettySize=auto;html=1;exitX=0.5;exitY=0.5;exitDx=0;exitDy=0;exitPerimeter=0;entryX=0;entryY=1;entryDx=0;entryDy=0;fontFamily=Helvetica;fontSize=14;fontColor=none;strokeColor=#00FF00;" parent="WIyWlLk6GJQsqaUBKTNV-1" source="ru_HE9yKcvlEWN_6YMoE-22" target="ru_HE9yKcvlEWN_6YMoE-39" edge="1">
          <mxGeometry relative="1" as="geometry">
            <Array as="points">
              <mxPoint x="340" y="420" />
              <mxPoint x="340" y="190" />
              <mxPoint x="381" y="190" />
              <mxPoint x="381" y="161" />
            </Array>
          </mxGeometry>
        </mxCell>
        <mxCell id="ru_HE9yKcvlEWN_6YMoE-53" style="edgeStyle=orthogonalEdgeStyle;rounded=0;orthogonalLoop=1;jettySize=auto;html=1;exitX=0.5;exitY=0.5;exitDx=0;exitDy=0;exitPerimeter=0;entryX=0.5;entryY=1;entryDx=0;entryDy=0;fontFamily=Helvetica;fontSize=14;fontColor=#000000;strokeColor=#00FF00;" parent="WIyWlLk6GJQsqaUBKTNV-1" source="ru_HE9yKcvlEWN_6YMoE-22" target="ru_HE9yKcvlEWN_6YMoE-49" edge="1">
          <mxGeometry relative="1" as="geometry">
            <Array as="points">
              <mxPoint x="340" y="420" />
              <mxPoint x="340" y="470" />
              <mxPoint x="440" y="470" />
            </Array>
          </mxGeometry>
        </mxCell>
        <mxCell id="ru_HE9yKcvlEWN_6YMoE-54" style="edgeStyle=orthogonalEdgeStyle;rounded=0;orthogonalLoop=1;jettySize=auto;html=1;exitX=0.5;exitY=0.5;exitDx=0;exitDy=0;exitPerimeter=0;entryX=0.5;entryY=1;entryDx=0;entryDy=0;fontFamily=Helvetica;fontSize=14;fontColor=#000000;strokeColor=#00FF00;" parent="WIyWlLk6GJQsqaUBKTNV-1" source="ru_HE9yKcvlEWN_6YMoE-22" target="ru_HE9yKcvlEWN_6YMoE-51" edge="1">
          <mxGeometry relative="1" as="geometry">
            <Array as="points">
              <mxPoint x="340" y="420" />
              <mxPoint x="340" y="470" />
              <mxPoint x="590" y="470" />
            </Array>
          </mxGeometry>
        </mxCell>
        <mxCell id="ru_HE9yKcvlEWN_6YMoE-22" value="Продавец" style="shape=umlActor;verticalLabelPosition=bottom;verticalAlign=top;html=1;labelBackgroundColor=none;labelBorderColor=none;fontFamily=Helvetica;fontSize=14;fontColor=default;strokeColor=#00FF00;" parent="WIyWlLk6GJQsqaUBKTNV-1" vertex="1">
          <mxGeometry x="255" y="390" width="30" height="60" as="geometry" />
        </mxCell>
        <mxCell id="ru_HE9yKcvlEWN_6YMoE-39" value="Просмотр Ассортимента" style="ellipse;whiteSpace=wrap;html=1;labelBackgroundColor=none;labelBorderColor=none;fontFamily=Helvetica;fontSize=14;fontColor=none;" parent="WIyWlLk6GJQsqaUBKTNV-1" vertex="1">
          <mxGeometry x="360" y="110" width="140" height="60" as="geometry" />
        </mxCell>
        <mxCell id="ru_HE9yKcvlEWN_6YMoE-47" style="edgeStyle=orthogonalEdgeStyle;rounded=0;orthogonalLoop=1;jettySize=auto;html=1;exitX=0.5;exitY=0;exitDx=0;exitDy=0;fontFamily=Helvetica;fontSize=14;fontColor=none;entryX=0;entryY=1;entryDx=0;entryDy=0;entryPerimeter=0;strokeColor=#FF0080;" parent="WIyWlLk6GJQsqaUBKTNV-1" source="ru_HE9yKcvlEWN_6YMoE-41" target="ru_HE9yKcvlEWN_6YMoE-11" edge="1">
          <mxGeometry relative="1" as="geometry">
            <mxPoint x="180" y="580" as="targetPoint" />
            <Array as="points">
              <mxPoint x="580" y="90" />
              <mxPoint x="180" y="90" />
              <mxPoint x="180" y="590" />
            </Array>
          </mxGeometry>
        </mxCell>
        <mxCell id="ru_HE9yKcvlEWN_6YMoE-41" value="Регистрация&lt;br&gt;&amp;nbsp;на сайте" style="ellipse;whiteSpace=wrap;html=1;labelBackgroundColor=none;labelBorderColor=none;fontFamily=Helvetica;fontSize=14;fontColor=none;" parent="WIyWlLk6GJQsqaUBKTNV-1" vertex="1">
          <mxGeometry x="510" y="110" width="140" height="60" as="geometry" />
        </mxCell>
        <mxCell id="ru_HE9yKcvlEWN_6YMoE-49" value="Редактирование&lt;br&gt;&amp;nbsp;цен на услуги" style="ellipse;whiteSpace=wrap;html=1;labelBackgroundColor=none;labelBorderColor=none;fontFamily=Helvetica;fontSize=14;fontColor=none;" parent="WIyWlLk6GJQsqaUBKTNV-1" vertex="1">
          <mxGeometry x="370" y="390" width="140" height="60" as="geometry" />
        </mxCell>
        <mxCell id="ru_HE9yKcvlEWN_6YMoE-65" style="edgeStyle=orthogonalEdgeStyle;rounded=0;orthogonalLoop=1;jettySize=auto;html=1;exitX=0.5;exitY=0.5;exitDx=0;exitDy=0;entryX=0.5;entryY=1;entryDx=0;entryDy=0;fontFamily=Helvetica;fontSize=14;fontColor=#000000;strokeColor=#007FFF;exitPerimeter=0;" parent="WIyWlLk6GJQsqaUBKTNV-1" source="ru_HE9yKcvlEWN_6YMoE-11" target="ru_HE9yKcvlEWN_6YMoE-52" edge="1">
          <mxGeometry relative="1" as="geometry">
            <Array as="points">
              <mxPoint x="350" y="560" />
              <mxPoint x="350" y="610" />
              <mxPoint x="590" y="610" />
            </Array>
          </mxGeometry>
        </mxCell>
        <mxCell id="ru_HE9yKcvlEWN_6YMoE-70" style="edgeStyle=orthogonalEdgeStyle;rounded=0;orthogonalLoop=1;jettySize=auto;html=1;exitX=1;exitY=0;exitDx=0;exitDy=0;entryX=0;entryY=1;entryDx=0;entryDy=0;fontFamily=Helvetica;fontSize=14;fontColor=#000000;strokeColor=#FF0080;" parent="WIyWlLk6GJQsqaUBKTNV-1" source="ru_HE9yKcvlEWN_6YMoE-50" target="ru_HE9yKcvlEWN_6YMoE-51" edge="1">
          <mxGeometry relative="1" as="geometry">
            <Array as="points">
              <mxPoint x="510" y="539" />
              <mxPoint x="510" y="441" />
            </Array>
          </mxGeometry>
        </mxCell>
        <mxCell id="ru_HE9yKcvlEWN_6YMoE-50" value="Добавление услуг&lt;br&gt;&amp;nbsp;в корзину покупок" style="ellipse;whiteSpace=wrap;html=1;labelBackgroundColor=none;labelBorderColor=none;fontFamily=Helvetica;fontSize=14;fontColor=none;" parent="WIyWlLk6GJQsqaUBKTNV-1" vertex="1">
          <mxGeometry x="370" y="530" width="140" height="60" as="geometry" />
        </mxCell>
        <mxCell id="ru_HE9yKcvlEWN_6YMoE-71" style="edgeStyle=orthogonalEdgeStyle;rounded=0;orthogonalLoop=1;jettySize=auto;html=1;exitX=1;exitY=1;exitDx=0;exitDy=0;entryX=1;entryY=0;entryDx=0;entryDy=0;fontFamily=Helvetica;fontSize=14;fontColor=#000000;strokeColor=#FF0080;" parent="WIyWlLk6GJQsqaUBKTNV-1" source="ru_HE9yKcvlEWN_6YMoE-51" target="ru_HE9yKcvlEWN_6YMoE-52" edge="1">
          <mxGeometry relative="1" as="geometry" />
        </mxCell>
        <mxCell id="ru_HE9yKcvlEWN_6YMoE-51" value="Подтверждение заказа услуг" style="ellipse;whiteSpace=wrap;html=1;labelBackgroundColor=none;labelBorderColor=none;fontFamily=Helvetica;fontSize=14;fontColor=none;" parent="WIyWlLk6GJQsqaUBKTNV-1" vertex="1">
          <mxGeometry x="520" y="390" width="140" height="60" as="geometry" />
        </mxCell>
        <mxCell id="ru_HE9yKcvlEWN_6YMoE-52" value="Покупка услуги" style="ellipse;whiteSpace=wrap;html=1;labelBackgroundColor=none;labelBorderColor=none;fontFamily=Helvetica;fontSize=14;fontColor=none;" parent="WIyWlLk6GJQsqaUBKTNV-1" vertex="1">
          <mxGeometry x="520" y="530" width="140" height="60" as="geometry" />
        </mxCell>
        <mxCell id="ru_HE9yKcvlEWN_6YMoE-57" style="edgeStyle=orthogonalEdgeStyle;rounded=0;orthogonalLoop=1;jettySize=auto;html=1;exitX=0.5;exitY=0;exitDx=0;exitDy=0;entryX=0.5;entryY=1;entryDx=0;entryDy=0;fontFamily=Helvetica;fontSize=14;fontColor=#000000;strokeColor=#FF0000;" parent="WIyWlLk6GJQsqaUBKTNV-1" source="ru_HE9yKcvlEWN_6YMoE-55" target="ru_HE9yKcvlEWN_6YMoE-41" edge="1">
          <mxGeometry relative="1" as="geometry">
            <Array as="points">
              <mxPoint x="510" y="210" />
              <mxPoint x="580" y="210" />
            </Array>
          </mxGeometry>
        </mxCell>
        <mxCell id="ru_HE9yKcvlEWN_6YMoE-58" style="edgeStyle=orthogonalEdgeStyle;rounded=0;orthogonalLoop=1;jettySize=auto;html=1;exitX=0.5;exitY=0;exitDx=0;exitDy=0;entryX=1;entryY=1;entryDx=0;entryDy=0;fontFamily=Helvetica;fontSize=14;fontColor=#000000;strokeColor=#FF0000;" parent="WIyWlLk6GJQsqaUBKTNV-1" source="ru_HE9yKcvlEWN_6YMoE-55" target="ru_HE9yKcvlEWN_6YMoE-39" edge="1">
          <mxGeometry relative="1" as="geometry">
            <Array as="points">
              <mxPoint x="510" y="210" />
              <mxPoint x="480" y="210" />
            </Array>
          </mxGeometry>
        </mxCell>
        <mxCell id="ru_HE9yKcvlEWN_6YMoE-59" style="edgeStyle=orthogonalEdgeStyle;rounded=0;orthogonalLoop=1;jettySize=auto;html=1;exitX=0.5;exitY=1;exitDx=0;exitDy=0;entryX=0.5;entryY=0;entryDx=0;entryDy=0;fontFamily=Helvetica;fontSize=14;fontColor=#000000;strokeColor=#FF0000;" parent="WIyWlLk6GJQsqaUBKTNV-1" source="ru_HE9yKcvlEWN_6YMoE-55" target="ru_HE9yKcvlEWN_6YMoE-49" edge="1">
          <mxGeometry relative="1" as="geometry" />
        </mxCell>
        <mxCell id="ru_HE9yKcvlEWN_6YMoE-60" style="edgeStyle=orthogonalEdgeStyle;rounded=0;orthogonalLoop=1;jettySize=auto;html=1;exitX=0.5;exitY=1;exitDx=0;exitDy=0;entryX=0.5;entryY=0;entryDx=0;entryDy=0;fontFamily=Helvetica;fontSize=14;fontColor=#000000;strokeColor=#FF0000;" parent="WIyWlLk6GJQsqaUBKTNV-1" source="ru_HE9yKcvlEWN_6YMoE-55" target="ru_HE9yKcvlEWN_6YMoE-51" edge="1">
          <mxGeometry relative="1" as="geometry">
            <Array as="points">
              <mxPoint x="510" y="350" />
              <mxPoint x="590" y="350" />
            </Array>
          </mxGeometry>
        </mxCell>
        <mxCell id="ru_HE9yKcvlEWN_6YMoE-61" style="edgeStyle=orthogonalEdgeStyle;rounded=0;orthogonalLoop=1;jettySize=auto;html=1;exitX=1;exitY=0.5;exitDx=0;exitDy=0;entryX=0.5;entryY=0;entryDx=0;entryDy=0;fontFamily=Helvetica;fontSize=14;fontColor=#000000;strokeColor=#FF0000;" parent="WIyWlLk6GJQsqaUBKTNV-1" source="ru_HE9yKcvlEWN_6YMoE-55" target="ru_HE9yKcvlEWN_6YMoE-50" edge="1">
          <mxGeometry relative="1" as="geometry">
            <Array as="points">
              <mxPoint x="680" y="280" />
              <mxPoint x="680" y="480" />
              <mxPoint x="440" y="480" />
            </Array>
          </mxGeometry>
        </mxCell>
        <mxCell id="ru_HE9yKcvlEWN_6YMoE-62" style="edgeStyle=orthogonalEdgeStyle;rounded=0;orthogonalLoop=1;jettySize=auto;html=1;exitX=1;exitY=0.5;exitDx=0;exitDy=0;entryX=0.5;entryY=0;entryDx=0;entryDy=0;fontFamily=Helvetica;fontSize=14;fontColor=#000000;strokeColor=#FF0000;" parent="WIyWlLk6GJQsqaUBKTNV-1" source="ru_HE9yKcvlEWN_6YMoE-55" target="ru_HE9yKcvlEWN_6YMoE-52" edge="1">
          <mxGeometry relative="1" as="geometry">
            <Array as="points">
              <mxPoint x="680" y="280" />
              <mxPoint x="680" y="480" />
              <mxPoint x="590" y="480" />
            </Array>
          </mxGeometry>
        </mxCell>
        <mxCell id="ru_HE9yKcvlEWN_6YMoE-55" value="Управление данными" style="ellipse;whiteSpace=wrap;html=1;labelBackgroundColor=none;labelBorderColor=none;fontFamily=Helvetica;fontSize=14;fontColor=none;" parent="WIyWlLk6GJQsqaUBKTNV-1" vertex="1">
          <mxGeometry x="440" y="250" width="140" height="60" as="geometry" />
        </mxCell>
        <mxCell id="ru_HE9yKcvlEWN_6YMoE-72" value="&lt;p&gt;&lt;/p&gt;&lt;ul style=&quot;box-sizing: border-box ; margin: 0px ; list-style: none ; padding: 0px ; color: rgb(44 , 45 , 48) ; background-color: rgb(255 , 255 , 255)&quot;&gt;&lt;li style=&quot;box-sizing: border-box&quot;&gt;&lt;font style=&quot;font-size: 14px&quot;&gt;- Диаграмма взаимодействия (последовательности);&lt;/font&gt;&lt;/li&gt;&lt;/ul&gt;&lt;p&gt;&lt;/p&gt;" style="text;html=1;resizable=0;autosize=1;align=center;verticalAlign=middle;points=[];fillColor=none;strokeColor=none;rounded=0;fontStyle=0;fontFamily=Helvetica;" parent="WIyWlLk6GJQsqaUBKTNV-1" vertex="1">
          <mxGeometry y="630" width="360" height="40" as="geometry" />
        </mxCell>
        <mxCell id="yN_V-BnS2XcKPEUp8Myx-5" value="" style="shape=umlLifeline;participant=umlActor;perimeter=lifelinePerimeter;whiteSpace=wrap;html=1;container=1;collapsible=0;recursiveResize=0;verticalAlign=top;spacingTop=36;outlineConnect=0;" vertex="1" parent="WIyWlLk6GJQsqaUBKTNV-1">
          <mxGeometry x="190" y="709" width="16" height="300" as="geometry" />
        </mxCell>
        <mxCell id="yN_V-BnS2XcKPEUp8Myx-6" value=":Меню программы&amp;nbsp;" style="shape=umlLifeline;perimeter=lifelinePerimeter;whiteSpace=wrap;html=1;container=1;collapsible=0;recursiveResize=0;outlineConnect=0;" vertex="1" parent="WIyWlLk6GJQsqaUBKTNV-1">
          <mxGeometry x="235" y="709" width="100" height="300" as="geometry" />
        </mxCell>
        <mxCell id="yN_V-BnS2XcKPEUp8Myx-10" value="" style="html=1;points=[];perimeter=orthogonalPerimeter;" vertex="1" parent="yN_V-BnS2XcKPEUp8Myx-6">
          <mxGeometry x="45" y="80" width="10" height="190" as="geometry" />
        </mxCell>
        <mxCell id="yN_V-BnS2XcKPEUp8Myx-7" value="Конструктор&lt;br&gt;габаритов" style="shape=umlLifeline;perimeter=lifelinePerimeter;whiteSpace=wrap;html=1;container=1;collapsible=0;recursiveResize=0;outlineConnect=0;" vertex="1" parent="WIyWlLk6GJQsqaUBKTNV-1">
          <mxGeometry x="350" y="709" width="100" height="300" as="geometry" />
        </mxCell>
        <mxCell id="yN_V-BnS2XcKPEUp8Myx-15" value="" style="html=1;points=[];perimeter=orthogonalPerimeter;" vertex="1" parent="yN_V-BnS2XcKPEUp8Myx-7">
          <mxGeometry x="45" y="90" width="10" height="40" as="geometry" />
        </mxCell>
        <mxCell id="yN_V-BnS2XcKPEUp8Myx-21" value="return" style="html=1;verticalAlign=bottom;startArrow=oval;startFill=1;endArrow=block;startSize=8;rounded=0;exitX=0.216;exitY=0.5;exitDx=0;exitDy=0;exitPerimeter=0;entryX=1.386;entryY=0.607;entryDx=0;entryDy=0;entryPerimeter=0;" edge="1" parent="yN_V-BnS2XcKPEUp8Myx-7" target="yN_V-BnS2XcKPEUp8Myx-10">
          <mxGeometry width="60" relative="1" as="geometry">
            <mxPoint x="155" y="195.40999999999997" as="sourcePoint" />
            <mxPoint x="-65" y="195" as="targetPoint" />
            <Array as="points">
              <mxPoint x="134.04000000000002" y="195.40999999999997" />
              <mxPoint x="114.04000000000002" y="195.40999999999997" />
            </Array>
          </mxGeometry>
        </mxCell>
        <mxCell id="yN_V-BnS2XcKPEUp8Myx-8" value="Выбор материала" style="shape=umlLifeline;perimeter=lifelinePerimeter;whiteSpace=wrap;html=1;container=1;collapsible=0;recursiveResize=0;outlineConnect=0;" vertex="1" parent="WIyWlLk6GJQsqaUBKTNV-1">
          <mxGeometry x="460" y="709" width="100" height="300" as="geometry" />
        </mxCell>
        <mxCell id="yN_V-BnS2XcKPEUp8Myx-18" value="" style="html=1;points=[];perimeter=orthogonalPerimeter;" vertex="1" parent="yN_V-BnS2XcKPEUp8Myx-8">
          <mxGeometry x="45" y="155" width="10" height="40" as="geometry" />
        </mxCell>
        <mxCell id="yN_V-BnS2XcKPEUp8Myx-9" value="Визуальный&lt;br&gt;вывод на экран" style="shape=umlLifeline;perimeter=lifelinePerimeter;whiteSpace=wrap;html=1;container=1;collapsible=0;recursiveResize=0;outlineConnect=0;" vertex="1" parent="WIyWlLk6GJQsqaUBKTNV-1">
          <mxGeometry x="570" y="709" width="100" height="300" as="geometry" />
        </mxCell>
        <mxCell id="yN_V-BnS2XcKPEUp8Myx-17" value="" style="html=1;points=[];perimeter=orthogonalPerimeter;" vertex="1" parent="yN_V-BnS2XcKPEUp8Myx-9">
          <mxGeometry x="45" y="216" width="10" height="40" as="geometry" />
        </mxCell>
        <mxCell id="yN_V-BnS2XcKPEUp8Myx-11" value="Открытие&amp;nbsp;" style="html=1;verticalAlign=bottom;startArrow=oval;endArrow=block;startSize=8;rounded=0;" edge="1" target="yN_V-BnS2XcKPEUp8Myx-10" parent="WIyWlLk6GJQsqaUBKTNV-1" source="yN_V-BnS2XcKPEUp8Myx-5">
          <mxGeometry relative="1" as="geometry">
            <mxPoint x="220" y="789" as="sourcePoint" />
            <Array as="points">
              <mxPoint x="240" y="789" />
            </Array>
          </mxGeometry>
        </mxCell>
        <mxCell id="yN_V-BnS2XcKPEUp8Myx-12" value="return" style="html=1;verticalAlign=bottom;startArrow=oval;startFill=1;endArrow=block;startSize=8;rounded=0;exitX=0.216;exitY=0.5;exitDx=0;exitDy=0;exitPerimeter=0;" edge="1" parent="WIyWlLk6GJQsqaUBKTNV-1">
          <mxGeometry width="60" relative="1" as="geometry">
            <mxPoint x="280.96000000000004" y="979" as="sourcePoint" />
            <mxPoint x="198" y="979" as="targetPoint" />
            <Array as="points">
              <mxPoint x="260" y="979" />
              <mxPoint x="240" y="979" />
            </Array>
          </mxGeometry>
        </mxCell>
        <mxCell id="yN_V-BnS2XcKPEUp8Myx-16" value="Открытие&amp;nbsp;" style="html=1;verticalAlign=bottom;startArrow=oval;endArrow=block;startSize=8;rounded=0;entryX=-0.057;entryY=-0.011;entryDx=0;entryDy=0;entryPerimeter=0;" edge="1" parent="WIyWlLk6GJQsqaUBKTNV-1" target="yN_V-BnS2XcKPEUp8Myx-15">
          <mxGeometry relative="1" as="geometry">
            <mxPoint x="290.99857142857144" y="799" as="sourcePoint" />
            <mxPoint x="373.07" y="799" as="targetPoint" />
            <Array as="points">
              <mxPoint x="333.07" y="799" />
            </Array>
          </mxGeometry>
        </mxCell>
        <mxCell id="yN_V-BnS2XcKPEUp8Myx-19" value="return" style="html=1;verticalAlign=bottom;startArrow=oval;startFill=1;endArrow=block;startSize=8;rounded=0;exitX=0.216;exitY=0.5;exitDx=0;exitDy=0;exitPerimeter=0;entryX=0.929;entryY=0.261;entryDx=0;entryDy=0;entryPerimeter=0;" edge="1" parent="WIyWlLk6GJQsqaUBKTNV-1" target="yN_V-BnS2XcKPEUp8Myx-10">
          <mxGeometry width="60" relative="1" as="geometry">
            <mxPoint x="391.00000000000006" y="839" as="sourcePoint" />
            <mxPoint x="308.04" y="839" as="targetPoint" />
            <Array as="points">
              <mxPoint x="370.04" y="839" />
              <mxPoint x="350.04" y="839" />
            </Array>
          </mxGeometry>
        </mxCell>
        <mxCell id="yN_V-BnS2XcKPEUp8Myx-20" value="Открытие&amp;nbsp;" style="html=1;verticalAlign=bottom;startArrow=oval;endArrow=block;startSize=8;rounded=0;entryX=0.029;entryY=0.121;entryDx=0;entryDy=0;entryPerimeter=0;" edge="1" parent="WIyWlLk6GJQsqaUBKTNV-1" target="yN_V-BnS2XcKPEUp8Myx-18">
          <mxGeometry relative="1" as="geometry">
            <mxPoint x="290.9985714285715" y="869.44" as="sourcePoint" />
            <mxPoint x="394.43000000000006" y="869" as="targetPoint" />
            <Array as="points">
              <mxPoint x="333.07" y="869.44" />
            </Array>
          </mxGeometry>
        </mxCell>
        <mxCell id="yN_V-BnS2XcKPEUp8Myx-22" value="Открытие&amp;nbsp;" style="html=1;verticalAlign=bottom;startArrow=oval;endArrow=block;startSize=8;rounded=0;" edge="1" parent="WIyWlLk6GJQsqaUBKTNV-1">
          <mxGeometry relative="1" as="geometry">
            <mxPoint x="290" y="925.5999999999999" as="sourcePoint" />
            <mxPoint x="617" y="925" as="targetPoint" />
            <Array as="points">
              <mxPoint x="444.93" y="925.6" />
            </Array>
          </mxGeometry>
        </mxCell>
        <mxCell id="yN_V-BnS2XcKPEUp8Myx-23" value="return" style="html=1;verticalAlign=bottom;startArrow=oval;startFill=1;endArrow=block;startSize=8;rounded=0;exitX=0;exitY=0.854;exitDx=0;exitDy=0;exitPerimeter=0;entryX=1.157;entryY=0.898;entryDx=0;entryDy=0;entryPerimeter=0;" edge="1" parent="WIyWlLk6GJQsqaUBKTNV-1" source="yN_V-BnS2XcKPEUp8Myx-17" target="yN_V-BnS2XcKPEUp8Myx-10">
          <mxGeometry width="60" relative="1" as="geometry">
            <mxPoint x="615" y="959.5699999999998" as="sourcePoint" />
            <mxPoint x="399.9200000000001" y="958.9999999999999" as="targetPoint" />
            <Array as="points">
              <mxPoint x="594.04" y="959.5699999999999" />
              <mxPoint x="574.04" y="959.5699999999999" />
            </Array>
          </mxGeometry>
        </mxCell>
        <mxCell id="yN_V-BnS2XcKPEUp8Myx-24" value="&lt;p&gt;&lt;/p&gt;&lt;ul style=&quot;box-sizing: border-box ; margin: 0px ; list-style: none ; padding: 0px ; color: rgb(44 , 45 , 48) ; background-color: rgb(255 , 255 , 255)&quot;&gt;&lt;li style=&quot;box-sizing: border-box&quot;&gt;&lt;font style=&quot;font-size: 14px&quot;&gt;&lt;font&gt;-&amp;nbsp;&lt;/font&gt;Диаграмму классов.&lt;/font&gt;&lt;/li&gt;&lt;/ul&gt;&lt;p&gt;&lt;/p&gt;" style="text;html=1;resizable=0;autosize=1;align=center;verticalAlign=middle;points=[];fillColor=none;strokeColor=none;rounded=0;fontStyle=0;fontFamily=Helvetica;" vertex="1" parent="WIyWlLk6GJQsqaUBKTNV-1">
          <mxGeometry y="1009" width="160" height="40" as="geometry" />
        </mxCell>
        <mxCell id="yN_V-BnS2XcKPEUp8Myx-28" value="Дизайнеры" style="swimlane;fontStyle=0;align=center;verticalAlign=top;childLayout=stackLayout;horizontal=1;startSize=26;horizontalStack=0;resizeParent=1;resizeLast=0;collapsible=1;marginBottom=0;rounded=0;shadow=0;strokeWidth=1;fillColor=#ffe6cc;strokeColor=#d79b00;" vertex="1" parent="WIyWlLk6GJQsqaUBKTNV-1">
          <mxGeometry x="520" y="1460" width="160" height="160" as="geometry">
            <mxRectangle x="377" y="1380.5" width="170" height="26" as="alternateBounds" />
          </mxGeometry>
        </mxCell>
        <mxCell id="yN_V-BnS2XcKPEUp8Myx-56" value="Имя" style="text;align=left;verticalAlign=top;spacingLeft=4;spacingRight=4;overflow=hidden;rotatable=0;points=[[0,0.5],[1,0.5]];portConstraint=eastwest;fontStyle=2" vertex="1" parent="yN_V-BnS2XcKPEUp8Myx-28">
          <mxGeometry y="26" width="160" height="26" as="geometry" />
        </mxCell>
        <mxCell id="yN_V-BnS2XcKPEUp8Myx-58" value="Email Адрес" style="text;align=left;verticalAlign=top;spacingLeft=4;spacingRight=4;overflow=hidden;rotatable=0;points=[[0,0.5],[1,0.5]];portConstraint=eastwest;rounded=0;shadow=0;html=0;fontStyle=2" vertex="1" parent="yN_V-BnS2XcKPEUp8Myx-28">
          <mxGeometry y="52" width="160" height="26" as="geometry" />
        </mxCell>
        <mxCell id="yN_V-BnS2XcKPEUp8Myx-57" value="Номер телефона" style="text;align=left;verticalAlign=top;spacingLeft=4;spacingRight=4;overflow=hidden;rotatable=0;points=[[0,0.5],[1,0.5]];portConstraint=eastwest;rounded=0;shadow=0;html=0;fontStyle=2" vertex="1" parent="yN_V-BnS2XcKPEUp8Myx-28">
          <mxGeometry y="78" width="160" height="26" as="geometry" />
        </mxCell>
        <mxCell id="yN_V-BnS2XcKPEUp8Myx-29" value="Симптомы" style="text;align=left;verticalAlign=top;spacingLeft=4;spacingRight=4;overflow=hidden;rotatable=0;points=[[0,0.5],[1,0.5]];portConstraint=eastwest;fontStyle=0;fillColor=#ffe6cc;strokeColor=#d79b00;" vertex="1" parent="yN_V-BnS2XcKPEUp8Myx-28">
          <mxGeometry y="104" width="160" height="26" as="geometry" />
        </mxCell>
        <mxCell id="yN_V-BnS2XcKPEUp8Myx-46" value="Чихание" style="text;align=left;verticalAlign=top;spacingLeft=4;spacingRight=4;overflow=hidden;rotatable=0;points=[[0,0.5],[1,0.5]];portConstraint=eastwest;fontStyle=2" vertex="1" parent="yN_V-BnS2XcKPEUp8Myx-28">
          <mxGeometry y="130" width="160" height="30" as="geometry" />
        </mxCell>
        <mxCell id="yN_V-BnS2XcKPEUp8Myx-33" value="" style="endArrow=block;endSize=10;endFill=0;shadow=0;strokeWidth=1;rounded=0;edgeStyle=elbowEdgeStyle;elbow=vertical;fontStyle=0;exitX=0.5;exitY=0;exitDx=0;exitDy=0;entryX=0.635;entryY=1.081;entryDx=0;entryDy=0;entryPerimeter=0;fillColor=#ffe6cc;strokeColor=#d79b00;" edge="1" parent="WIyWlLk6GJQsqaUBKTNV-1" source="yN_V-BnS2XcKPEUp8Myx-28" target="yN_V-BnS2XcKPEUp8Myx-32">
          <mxGeometry width="160" relative="1" as="geometry">
            <mxPoint x="593" y="1380.4999999999998" as="sourcePoint" />
            <mxPoint x="250" y="1300" as="targetPoint" />
            <Array as="points">
              <mxPoint x="440" y="1420" />
            </Array>
          </mxGeometry>
        </mxCell>
        <mxCell id="yN_V-BnS2XcKPEUp8Myx-34" value="Симптомы" style="swimlane;fontStyle=0;align=center;verticalAlign=top;childLayout=stackLayout;horizontal=1;startSize=26;horizontalStack=0;resizeParent=1;resizeLast=0;collapsible=1;marginBottom=0;rounded=0;shadow=0;strokeWidth=1;fillColor=#d5e8d4;strokeColor=#82b366;" vertex="1" parent="WIyWlLk6GJQsqaUBKTNV-1">
          <mxGeometry x="520" y="1259.75" width="160" height="139.5" as="geometry">
            <mxRectangle x="550" y="140" width="160" height="26" as="alternateBounds" />
          </mxGeometry>
        </mxCell>
        <mxCell id="yN_V-BnS2XcKPEUp8Myx-35" value="Чихание" style="text;align=left;verticalAlign=top;spacingLeft=4;spacingRight=4;overflow=hidden;rotatable=0;points=[[0,0.5],[1,0.5]];portConstraint=eastwest;fontStyle=0" vertex="1" parent="yN_V-BnS2XcKPEUp8Myx-34">
          <mxGeometry y="26" width="160" height="26" as="geometry" />
        </mxCell>
        <mxCell id="yN_V-BnS2XcKPEUp8Myx-36" value="Боли в мышцах" style="text;align=left;verticalAlign=top;spacingLeft=4;spacingRight=4;overflow=hidden;rotatable=0;points=[[0,0.5],[1,0.5]];portConstraint=eastwest;rounded=0;shadow=0;html=0;fontStyle=0" vertex="1" parent="yN_V-BnS2XcKPEUp8Myx-34">
          <mxGeometry y="52" width="160" height="26" as="geometry" />
        </mxCell>
        <mxCell id="yN_V-BnS2XcKPEUp8Myx-37" value="Высокая температура" style="text;align=left;verticalAlign=top;spacingLeft=4;spacingRight=4;overflow=hidden;rotatable=0;points=[[0,0.5],[1,0.5]];portConstraint=eastwest;rounded=0;shadow=0;html=0;fontStyle=0" vertex="1" parent="yN_V-BnS2XcKPEUp8Myx-34">
          <mxGeometry y="78" width="160" height="26" as="geometry" />
        </mxCell>
        <mxCell id="yN_V-BnS2XcKPEUp8Myx-38" value="" style="line;html=1;strokeWidth=1;align=left;verticalAlign=middle;spacingTop=-1;spacingLeft=3;spacingRight=3;rotatable=0;labelPosition=right;points=[];portConstraint=eastwest;fontStyle=0;fillColor=#d5e8d4;strokeColor=#82b366;" vertex="1" parent="yN_V-BnS2XcKPEUp8Myx-34">
          <mxGeometry y="104" width="160" height="8" as="geometry" />
        </mxCell>
        <mxCell id="yN_V-BnS2XcKPEUp8Myx-39" value="Выписать таблетку" style="text;align=left;verticalAlign=top;spacingLeft=4;spacingRight=4;overflow=hidden;rotatable=0;points=[[0,0.5],[1,0.5]];portConstraint=eastwest;fontStyle=0" vertex="1" parent="yN_V-BnS2XcKPEUp8Myx-34">
          <mxGeometry y="112" width="160" height="26" as="geometry" />
        </mxCell>
        <mxCell id="yN_V-BnS2XcKPEUp8Myx-41" value="" style="endArrow=open;shadow=0;strokeWidth=1;rounded=0;endFill=1;edgeStyle=elbowEdgeStyle;elbow=vertical;fontStyle=0;exitX=1;exitY=0.5;exitDx=0;exitDy=0;fillColor=#d5e8d4;strokeColor=#82b366;" edge="1" parent="WIyWlLk6GJQsqaUBKTNV-1" source="yN_V-BnS2XcKPEUp8Myx-32">
          <mxGeometry x="0.5" y="41" relative="1" as="geometry">
            <mxPoint x="350" y="1290" as="sourcePoint" />
            <mxPoint x="520" y="1261" as="targetPoint" />
            <mxPoint x="-40" y="32" as="offset" />
            <Array as="points">
              <mxPoint x="430" y="1261" />
            </Array>
          </mxGeometry>
        </mxCell>
        <mxCell id="yN_V-BnS2XcKPEUp8Myx-42" value="0..1" style="resizable=0;align=left;verticalAlign=bottom;labelBackgroundColor=none;fontSize=12;fontStyle=0" connectable="0" vertex="1" parent="yN_V-BnS2XcKPEUp8Myx-41">
          <mxGeometry x="-1" relative="1" as="geometry">
            <mxPoint y="4" as="offset" />
          </mxGeometry>
        </mxCell>
        <mxCell id="yN_V-BnS2XcKPEUp8Myx-43" value="1" style="resizable=0;align=right;verticalAlign=bottom;labelBackgroundColor=none;fontSize=12;fontStyle=0" connectable="0" vertex="1" parent="yN_V-BnS2XcKPEUp8Myx-41">
          <mxGeometry x="1" relative="1" as="geometry">
            <mxPoint x="-7" y="4" as="offset" />
          </mxGeometry>
        </mxCell>
        <mxCell id="yN_V-BnS2XcKPEUp8Myx-44" value="Помощь&amp;nbsp;" style="text;html=1;resizable=0;points=[];;align=center;verticalAlign=middle;labelBackgroundColor=none;rounded=0;shadow=0;strokeWidth=1;fontSize=12;fontStyle=0" vertex="1" connectable="0" parent="yN_V-BnS2XcKPEUp8Myx-41">
          <mxGeometry x="0.5" y="49" relative="1" as="geometry">
            <mxPoint x="-38" y="60" as="offset" />
          </mxGeometry>
        </mxCell>
      </root>
    </mxGraphModel>
  </diagram>
</mxfile>
